<?xml version="1.0" standalone="no"?><!DOCTYPE svg PUBLIC "-//W3C//DTD SVG 1.1//EN" "http://www.w3.org/Graphics/SVG/1.1/DTD/svg11.dtd"><svg t="1764078638604" class="icon" viewBox="0 0 1024 1024" version="1.1" xmlns="http://www.w3.org/2000/svg" p-id="6417" xmlns:xlink="http://www.w3.org/1999/xlink" width="200" height="200"><path d="M567.51 116.858c-32.855-27.811-79.791-27.811-107.952 0L88.766 478.396c-28.161 27.811-37.549 88.067 0 106.607 23.468 9.27 46.936 18.541 75.097 27.811v227.12c0 50.986 32.855 88.067 75.097 88.067h335.244v-78.874c0-60.256 28.855-78.874 66.403-78.874 37.549 0 66.404 18.618 66.404 78.874V928h85.791c42.242 0 75.097-41.716 75.097-88.067v-227.12c28.162-9.27 51.629-13.906 75.097-23.176 28.162-18.54 18.774-78.797-9.387-111.242L567.51 116.858z" fill="#72AEFF" p-id="6418"></path></svg>